<?xml version="1.0" standalone="no"?>
<!DOCTYPE svg PUBLIC "-//W3C//DTD SVG 20010904//EN"
 "http://www.w3.org/TR/2001/REC-SVG-20010904/DTD/svg10.dtd">
<svg version="1.0" xmlns="http://www.w3.org/2000/svg"
 width="357.000000pt" height="124.000000pt" viewBox="0 0 357.000000 124.000000"
 preserveAspectRatio="xMidYMid meet">

<g transform="translate(0.000000,124.000000) scale(0.100000,-0.100000)"
fill="#000000" stroke="none">
<path d="M1127 983 c-110 -115 -130 -144 -107 -158 6 -4 8 -11 5 -16 -10 -16
-41 -10 -61 12 -10 12 -36 35 -57 51 -32 26 -40 28 -54 17 -10 -9 -18 -10 -20
-4 -3 10 -159 -33 -203 -55 -9 -4 -16 -25 -18 -54 -3 -41 -1 -46 17 -46 12 0
21 -7 21 -15 0 -10 -10 -15 -32 -15 -18 -1 -44 -7 -58 -15 -37 -21 -40 -19
-40 30 0 35 -6 51 -31 80 -39 44 -55 53 -120 65 -75 15 -169 -3 -257 -47 -106
-54 -110 -60 -77 -120 46 -81 65 -104 84 -98 16 5 43 -49 141 -282 14 -34 28
-53 39 -53 34 1 156 56 155 71 -1 7 -4 34 -8 59 -7 44 -7 45 11 23 37 -46 114
-56 178 -23 22 11 40 20 40 20 0 0 1 -10 2 -21 1 -12 3 -23 5 -24 5 -5 143 21
156 29 7 4 12 25 12 47 0 21 3 39 7 39 4 0 58 -25 121 -56 62 -30 121 -54 130
-52 13 3 18 16 20 63 l3 60 45 17 44 16 -6 -32 -6 -32 78 -12 c56 -9 80 -9 90
-1 11 9 16 5 26 -15 6 -16 17 -25 25 -22 7 3 13 -1 13 -8 0 -20 177 -51 196
-35 8 7 12 19 9 28 -3 12 4 20 25 28 30 11 30 11 30 -22 0 -33 1 -34 55 -40
49 -7 55 -10 55 -30 0 -19 10 -27 61 -44 40 -13 67 -17 77 -12 9 5 28 47 42
93 l26 83 34 -50 c91 -133 215 -193 375 -183 99 7 183 47 258 123 31 32 62 73
69 92 7 18 14 33 18 33 3 -1 21 -26 40 -57 82 -130 217 -200 368 -191 116 8
182 37 262 118 79 78 109 144 117 256 7 92 -21 190 -74 260 -38 50 -48 59
-115 106 -90 62 -250 75 -368 30 -70 -28 -149 -97 -196 -173 -37 -59 -37 -59
-85 -59 -27 0 -49 3 -49 7 0 4 14 21 31 39 l31 32 -23 32 c-113 153 -367 197
-531 94 -53 -33 -110 -93 -138 -141 -21 -38 -24 -40 -53 -32 -16 5 -34 6 -39
3 -5 -3 -14 -1 -21 4 -23 18 -199 54 -210 43 -6 -6 -10 -33 -8 -61 2 -45 0
-50 -19 -50 -11 0 -36 -6 -55 -14 -31 -13 -35 -13 -39 2 -5 17 -26 140 -26
155 0 11 -138 8 -145 -3 -3 -5 -34 -10 -69 -10 -64 0 -86 -11 -86 -42 0 -22 6
-23 -64 11 l-59 29 34 15 c70 30 72 36 36 95 -17 28 -37 52 -43 52 -6 0 -27
-17 -47 -37z m1417 -31 c35 -16 82 -47 105 -68 l42 -37 -55 -56 c-31 -31 -56
-60 -56 -64 0 -5 37 -7 82 -6 l82 2 9 -34 c5 -19 7 -64 4 -101 -11 -129 -93
-243 -217 -302 -57 -27 -76 -31 -150 -31 -71 0 -95 5 -142 27 -82 38 -155 110
-191 188 -27 56 -31 77 -31 150 -1 73 3 94 27 144 91 195 302 276 491 188z
m762 2 c85 -40 145 -100 184 -186 29 -62 34 -84 34 -148 0 -142 -78 -263 -214
-331 -58 -29 -74 -33 -150 -33 -76 -1 -93 3 -156 33 -87 40 -143 95 -181 176
-24 52 -28 72 -28 155 0 84 3 102 29 157 44 96 143 176 250 204 59 16 169 3
232 -27z m-2112 -6 c19 -27 15 -33 -44 -63 -55 -28 -60 -29 -60 -16 0 11 72
99 82 100 4 1 14 -9 22 -21z m-392 -167 l3 -54 39 57 c21 31 41 56 45 56 3 -1
24 -16 45 -35 44 -39 45 -35 -32 -115 l-44 -45 49 -22 c26 -12 62 -36 78 -53
17 -17 49 -37 70 -44 36 -13 40 -18 43 -50 2 -20 1 -36 -3 -36 -3 0 -64 29
-135 65 -71 36 -134 65 -140 65 -6 0 -10 -29 -10 -69 0 -72 -6 -81 -52 -81
-22 0 -22 1 -1 142 4 28 -1 47 -16 73 -12 20 -21 53 -21 73 0 55 -10 84 -27
78 -10 -4 -13 0 -11 11 3 17 98 55 110 44 4 -3 8 -30 10 -60z m755 -16 c13
-78 12 -81 -13 -131 -23 -47 -24 -56 -14 -95 7 -26 26 -56 47 -76 l34 -33 -45
0 c-25 0 -47 4 -50 9 -3 5 -11 44 -18 87 l-11 79 -20 -45 -20 -44 -27 59 -27
60 -7 -50 c-4 -27 -9 -58 -12 -67 -5 -18 -38 -24 -68 -12 -23 9 -21 67 4 89
22 20 27 45 9 45 -13 0 -6 86 12 153 9 36 11 37 53 37 41 0 44 -2 50 -31 3
-17 6 -42 6 -56 0 -14 4 -21 10 -18 6 3 10 16 10 28 0 12 5 39 11 60 9 35 13
38 42 35 32 -3 32 -3 44 -83z m-1138 45 c38 -19 71 -69 71 -107 -1 -35 -40
-105 -80 -142 l-39 -36 22 -87 c13 -49 22 -88 21 -88 -1 0 -18 -7 -38 -15 -35
-15 -37 -15 -45 8 -11 30 -106 237 -133 294 -17 35 -24 40 -38 33 -20 -11 -28
-4 -54 47 -21 43 -21 48 12 63 109 52 235 64 301 30z m785 -14 c19 -8 36 -19
40 -24 3 -6 -19 -38 -50 -72 -31 -33 -55 -63 -52 -65 2 -3 21 4 42 15 38 19
38 19 67 -2 16 -12 29 -24 29 -27 0 -14 -70 -51 -117 -62 -126 -29 -214 73
-157 182 29 57 128 84 198 55z m680 -12 c13 -5 28 -62 42 -153 8 -51 14 -43
39 57 11 39 23 72 27 72 7 0 2 -95 -7 -125 -1 -5 1 -37 6 -70 7 -52 5 -71 -18
-140 -14 -44 -29 -84 -33 -88 -4 -5 -22 -1 -39 7 l-31 17 -1 112 -1 112 -16
-87 c-12 -72 -18 -88 -32 -88 -56 0 -66 42 -23 98 37 49 44 123 14 162 -12 17
-21 44 -21 65 0 19 -4 35 -10 35 -5 0 -10 7 -10 16 0 14 8 16 50 10 28 -4 56
-9 64 -12z m-121 -104 c62 -49 36 -159 -47 -199 -56 -28 -95 -22 -131 21 -45
53 -25 137 43 176 47 28 101 28 135 2z m-815 -25 c-2 -10 -7 -12 -17 -5 -13 7
-13 11 -1 25 15 18 24 8 18 -20z m-247 -14 c87 -88 -40 -255 -157 -206 -122
51 -56 235 84 235 35 0 49 -6 73 -29z"/>
<path d="M2273 941 c-136 -49 -223 -174 -223 -321 0 -31 2 -59 5 -61 2 -3 43
1 90 10 l85 14 0 42 c0 50 30 99 80 133 49 34 137 28 178 -11 15 -15 31 -27
35 -27 4 0 34 28 67 62 l60 62 -22 24 c-79 83 -236 115 -355 73z"/>
<path d="M2333 741 c-70 -32 -96 -117 -59 -189 30 -59 119 -83 182 -49 l29 16
-62 1 -63 0 0 103 0 103 39 -4 c21 -2 47 -2 57 1 15 3 11 8 -18 20 -47 21 -53
21 -105 -2z"/>
<path d="M2380 650 l0 -50 168 6 c92 3 172 7 177 9 6 1 9 21 7 44 l-4 41 -174
0 -174 0 0 -50z"/>
<path d="M2530 593 c-108 -5 -150 -13 -150 -29 0 -11 16 -14 75 -14 41 0 75
-4 75 -8 0 -11 -50 -57 -77 -71 -62 -32 -156 -1 -198 66 -11 18 -26 30 -35 28
-8 -2 -48 -9 -88 -15 -73 -12 -74 -12 -67 -39 10 -42 63 -117 109 -155 52 -42
147 -76 215 -76 27 0 79 9 117 21 56 17 77 31 124 78 57 57 100 141 100 196 0
27 0 27 -200 18z"/>
<path d="M3093 954 c-147 -30 -245 -128 -273 -273 -5 -29 -7 -57 -4 -62 3 -5
43 -9 88 -9 l84 0 6 32 c9 47 52 104 93 123 45 22 124 16 161 -12 38 -28 72
-91 72 -135 l0 -36 73 -12 c39 -6 77 -13 84 -15 29 -9 31 78 3 168 -51 166
-218 266 -387 231z"/>
<path d="M3113 749 c-39 -11 -80 -59 -89 -104 -23 -122 126 -208 220 -126 71
62 56 180 -29 221 -45 22 -55 23 -102 9z m61 -95 c21 -8 21 -60 0 -68 -30 -12
-54 3 -54 34 0 34 21 47 54 34z m-61 -64 c9 -11 28 -20 42 -20 14 0 33 9 42
20 19 22 73 28 73 8 0 -7 -9 -27 -20 -45 -38 -63 -161 -58 -195 8 -8 15 -15
33 -15 39 0 18 55 11 73 -10z"/>
<path d="M2817 568 c23 -121 86 -204 193 -256 47 -23 68 -27 145 -27 77 0 98
4 145 26 72 35 145 109 169 173 l19 51 -87 17 c-80 16 -87 16 -96 1 -16 -27
-68 -74 -93 -84 -34 -13 -89 -11 -121 5 -33 18 -91 81 -91 100 0 17 -44 26
-126 26 l-63 0 6 -32z"/>
<path d="M317 713 c-8 -12 33 -133 44 -133 5 0 21 12 34 26 27 29 34 81 13
102 -13 13 -84 17 -91 5z m63 -38 c7 -8 9 -23 5 -32 -6 -16 -8 -15 -20 7 -8
14 -14 28 -15 33 0 12 17 8 30 -8z"/>
<path d="M1075 735 c-29 -28 -32 -53 -10 -81 15 -18 17 -17 60 31 41 45 44 51
28 62 -26 19 -51 16 -78 -12z m33 -36 c-18 -24 -24 -27 -26 -14 -6 26 6 45 28
45 20 0 20 0 -2 -31z"/>
<path d="M1645 655 c-14 -13 -25 -28 -25 -33 0 -22 43 -62 66 -62 30 0 64 33
64 62 0 20 -1 20 -18 5 -24 -22 -48 -22 -61 0 -7 13 -5 23 6 35 25 28 -4 22
-32 -7z"/>
<path d="M576 629 c-31 -25 -33 -48 -6 -77 41 -43 111 -16 110 43 -1 19 -1 19
-14 3 -17 -23 -52 -23 -65 -1 -7 13 -5 23 6 35 22 25 1 23 -31 -3z"/>
</g>
</svg>
